<?xml version="1.0" encoding="utf-8"?>
<!-- Generator: Adobe Illustrator 26.2.1, SVG Export Plug-In . SVG Version: 6.00 Build 0)  -->
<svg version="1.1" id="Layer_1" xmlns="http://www.w3.org/2000/svg" xmlns:xlink="http://www.w3.org/1999/xlink" x="0px" y="0px"
	 viewBox="0 0 105 105" style="enable-background:new 0 0 105 105;" xml:space="preserve">
<path d="M105,52.73c0,26.58-19.74,48.55-45.35,52.03V67.98H72.1l2.39-15.74H59.65V41.05c0-3.68,2.97-6.65,6.65-6.65h9.39V19.24
	H62.26C51.61,19.24,43,27.85,43,38.5v13.87H29.36v15.84H43v36.16c-10.68-1.94-20.23-7.13-27.61-14.52C5.87,80.37,0,67.24,0,52.76
	v-0.03c0-29,23.52-52.48,52.52-52.48c14.52,0,27.61,5.87,37.13,15.35C99.13,25.11,105,38.21,105,52.73z"/>
</svg>
