<?xml version="1.0" encoding="utf-8"?>
<!-- Generator: Adobe Illustrator 26.2.1, SVG Export Plug-In . SVG Version: 6.00 Build 0)  -->
<svg version="1.1" id="Layer_1" xmlns="http://www.w3.org/2000/svg" xmlns:xlink="http://www.w3.org/1999/xlink" x="0px" y="0px"
	 viewBox="0 0 105 105" style="enable-background:new 0 0 105 105;" xml:space="preserve">
<g>
	<path d="M52.5,25.52c-14.88,0-26.98,12.11-26.98,26.98S37.63,79.47,52.5,79.47s26.98-12.1,26.98-26.97
		C79.48,37.62,67.37,25.52,52.5,25.52z M52.5,70.49c-9.92,0-17.99-8.07-17.99-17.99s8.07-17.99,17.99-17.99s17.99,8.07,17.99,17.99
		S62.42,70.49,52.5,70.49z"/>
	<path d="M77.59,0H27.41C12.3,0,0,12.3,0,27.41v50.18C0,92.7,12.3,105,27.41,105h50.18C92.7,105,105,92.7,105,77.59V27.41
		C105,12.3,92.7,0,77.59,0z M96.02,77.59c0,10.16-8.27,18.43-18.43,18.43H27.41c-10.16,0-18.43-8.27-18.43-18.43V27.41
		c0-10.16,8.27-18.43,18.43-18.43h50.18c10.16,0,18.43,8.27,18.43,18.43V77.59z"/>
	<ellipse transform="matrix(0.9871 -0.1602 0.1602 0.9871 -2.8581 13.1654)" cx="80.23" cy="24.31" rx="6.2" ry="6.2"/>
</g>
</svg>
