<?xml version="1.0" encoding="utf-8"?>
<!-- Generator: Adobe Illustrator 26.2.1, SVG Export Plug-In . SVG Version: 6.00 Build 0)  -->
<svg version="1.1" id="Layer_1" xmlns="http://www.w3.org/2000/svg" xmlns:xlink="http://www.w3.org/1999/xlink" x="0px" y="0px"
	 viewBox="0 0 105 105" style="enable-background:new 0 0 105 105;" xml:space="preserve">
<path d="M104.72,21.45c-2.19,3.05-4.59,5.8-7.37,8.34c-2.99,2.72-2.46,4.56-2.75,8.27c-0.44,5.58-1.59,10.96-3.41,16.25
	C87.6,64.7,81.13,73.93,72.79,81.04C52.79,98.09,21.94,98.81,0,85.22c16.16,0.69,23.4-2.64,31.81-8.86
	c-8.45-1.22-16.03-3.48-20.18-15.07c4.06,1.11,6.96,0.57,9.44-0.12c-7.8-2.47-16.95-6.25-16.95-21.24c3.31,1.99,7.77,2.84,9.71,2.57
	C3.33,35.2,2.47,23,7.25,13.9c6.76,10.08,31.71,24.22,43.07,21.73c-1.26-10.2,4.23-20.52,14.33-23.97c5.7-1.94,11.36-1.8,16.97,0.39
	c2.19,0.87,4.39,2.29,6.07,3.94c0.29,0.29,0.48,0.49,0.87,0.58c0.25,0.05,0.5,0.03,0.74-0.04c3.93-1.11,10.08-3.81,11.8-4.79
	c0.68-0.38-3.48,9.49-9.16,11.9c2.55-0.57,8.56-2.4,11.03-3.44c0.48-0.2,1.04-0.33,1.44-0.19
	C104.99,20.21,105.23,20.75,104.72,21.45z"/>
</svg>
